<svg width="312" height="340" viewBox="0 0 312 340" fill="none" xmlns="http://www.w3.org/2000/svg">
<path d="M0 275.544C0 241.138 20.9045 217.185 72.2949 212.394L157.22 204.12C155.478 164.924 137.622 146.197 99.2966 146.197C69.2463 146.197 46.5997 160.133 43.1156 196.28H4.79063C9.58125 147.068 42.6801 114.84 98.8611 114.84C162.01 114.84 195.98 153.6 195.98 210.652V302.545H227.772V335.644H188.141C171.592 335.644 162.01 326.063 162.01 309.513V299.061L168.107 275.979H157.22C148.945 309.078 125.863 339.999 73.1659 339.999C9.58125 339.999 0 298.19 0 275.544ZM38.325 270.753C38.325 295.577 54.4389 308.207 79.2631 308.207C126.298 308.207 157.22 275.108 157.22 231.557L78.8276 239.832C52.2614 242.445 38.325 249.848 38.325 270.753Z" fill="black"/>
<path d="M222.125 0C223.866 48.5086 262.788 87.4304 311.296 89.1715C262.788 90.9126 223.866 129.834 222.125 178.343C220.384 129.834 181.462 90.9126 132.953 89.1715C181.462 87.4304 220.384 48.5086 222.125 0Z" fill="#362BFF"/>
</svg>
